<svg width="28" height="28" viewBox="0 0 28 28" fill="none" xmlns="http://www.w3.org/2000/svg">
<path d="M22.75 10.25V9C22.75 8.30964 22.1904 7.75 21.5 7.75H20.25M22.75 10.25H21.5C20.8096 10.25 20.25 9.69036 20.25 9V7.75M22.75 10.25V17.75M20.25 7.75H7.75M22.75 17.75V19C22.75 19.6904 22.1904 20.25 21.5 20.25H20.25M22.75 17.75H21.5C20.8096 17.75 20.25 18.3096 20.25 19V20.25M20.25 20.25H7.75M7.75 20.25H6.5C5.80964 20.25 5.25 19.6904 5.25 19V17.75M7.75 20.25V19C7.75 18.3096 7.19036 17.75 6.5 17.75H5.25M5.25 17.75V10.25M5.25 10.25V9C5.25 8.30964 5.80964 7.75 6.5 7.75H7.75M5.25 10.25H6.5C7.19036 10.25 7.75 9.69036 7.75 9V7.75M16.5 14C16.5 15.3807 15.3807 16.5 14 16.5C12.6193 16.5 11.5 15.3807 11.5 14C11.5 12.6193 12.6193 11.5 14 11.5C15.3807 11.5 16.5 12.6193 16.5 14Z" stroke="black" stroke-opacity="0.9" stroke-width="2" stroke-linecap="round" stroke-linejoin="round"/>
</svg>
