<svg width="28" height="28" viewBox="0 0 28 28" fill="none" xmlns="http://www.w3.org/2000/svg">
<path fill-rule="evenodd" clip-rule="evenodd" d="M15 5.25C15 4.69772 14.5523 4.25 14 4.25C13.4477 4.25 13 4.69772 13 5.25V5.58518C12.7158 5.64848 12.4162 5.74658 12.13 5.89639C11.7803 6.07944 11.426 6.35289 11.1608 6.75578C10.8913 7.16528 10.75 7.65385 10.75 8.20252C10.75 9.38698 11.6678 10.0478 12.252 10.3561C12.8494 10.6715 13.4869 10.8303 13.7191 10.8881L13.7555 10.8972C13.9496 10.9461 14.4747 11.087 14.9338 11.3331C15.4709 11.621 15.5 11.8174 15.5 11.831C15.5 12.0819 15.385 12.3103 15.1205 12.5078C14.8414 12.7162 14.4314 12.8535 14 12.8535C13.209 12.8535 12.6577 12.3715 12.3056 11.8928C11.9783 11.4479 11.3524 11.3525 10.9075 11.6798C10.4626 12.007 10.3672 12.6329 10.6944 13.0778C11.1067 13.6384 11.8614 14.4189 13 14.724V15.25C13 15.8023 13.4477 16.25 14 16.25C14.5523 16.25 15 15.8023 15 15.25V14.7284C15.4745 14.608 15.9275 14.4012 16.317 14.1104C16.99 13.608 17.5 12.8252 17.5 11.831C17.5 10.5995 16.4874 9.89672 15.8787 9.57041C15.192 9.20233 14.4671 9.01402 14.2445 8.95789L14.2233 8.95255C13.9944 8.89494 13.5621 8.78615 13.1855 8.58739C12.7499 8.35746 12.75 8.20846 12.75 8.20256V8.20252C12.75 8.00764 12.7962 7.90881 12.8314 7.85546C12.8708 7.79549 12.9385 7.73063 13.0575 7.66831C13.3208 7.53047 13.6973 7.4775 14 7.4775C14.2332 7.4775 14.5591 7.53671 14.8743 7.66449C15.1962 7.79496 15.4127 7.95813 15.5179 8.09589C15.8533 8.53472 16.4808 8.61862 16.9197 8.28329C17.3585 7.94795 17.4424 7.32037 17.1071 6.88154C16.7123 6.36499 16.1476 6.02255 15.6257 5.81099C15.4226 5.72866 15.2118 5.66036 15 5.60747V5.25ZM5.25 19.25C5.25 18.6977 5.69772 18.25 6.25 18.25H21.75C22.3023 18.25 22.75 18.6977 22.75 19.25C22.75 19.8023 22.3023 20.25 21.75 20.25H6.25C5.69772 20.25 5.25 19.8023 5.25 19.25ZM5.25 23C5.25 22.4477 5.69772 22 6.25 22H21.75C22.3023 22 22.75 22.4477 22.75 23C22.75 23.5523 22.3023 24 21.75 24H6.25C5.69772 24 5.25 23.5523 5.25 23Z" fill="black" fill-opacity="0.9"/>
</svg>
