<svg width="90" height="22" viewBox="0 0 90 22" fill="none" xmlns="http://www.w3.org/2000/svg">
<path fill-rule="evenodd" clip-rule="evenodd" d="M0 4.4C0 3.71873 0 3.37809 0.0451428 3.09307C0.293638 1.52413 1.52413 0.293638 3.09307 0.0451428C3.37809 0 3.71873 0 4.4 0H17.6C18.2813 0 18.6219 0 18.9069 0.0451428C20.4759 0.293638 21.7064 1.52413 21.9549 3.09307C22 3.37809 22 3.71873 22 4.4V17.6C22 18.2813 22 18.6219 21.9549 18.9069C21.7064 20.4759 20.4759 21.7064 18.9069 21.9549C18.6219 22 18.2813 22 17.6 22H4.4C3.71873 22 3.37809 22 3.09307 21.9549C1.52413 21.7064 0.293638 20.4759 0.0451428 18.9069C0 18.6219 0 18.2813 0 17.6V4.4ZM4.125 5.21053C4.125 4.61101 4.61101 4.125 5.21053 4.125H16.7895C17.389 4.125 17.875 4.61101 17.875 5.21053V16.7895C17.875 17.389 17.389 17.875 16.7895 17.875H5.21053C4.61101 17.875 4.125 17.389 4.125 16.7895V5.21053ZM8.00641 8.41838C7.975 8.51504 7.975 8.63447 7.975 8.87333V13.1267C7.975 13.3655 7.975 13.485 8.00641 13.5816C8.06988 13.777 8.22303 13.9301 8.41838 13.9936C8.51504 14.025 8.63447 14.025 8.87333 14.025H13.1267C13.3655 14.025 13.485 14.025 13.5816 13.9936C13.777 13.9301 13.9301 13.777 13.9936 13.5816C14.025 13.485 14.025 13.3655 14.025 13.1267V8.87333C14.025 8.63447 14.025 8.51504 13.9936 8.41838C13.9301 8.22303 13.777 8.06988 13.5816 8.00641C13.485 7.975 13.3655 7.975 13.1267 7.975H8.87333C8.63447 7.975 8.51504 7.975 8.41838 8.00641C8.22303 8.06988 8.06988 8.22303 8.00641 8.41838Z" fill="black"/>
<path d="M33.757 6.334C35.182 6.334 36.436 6.961 37.139 7.968L39.02 6.676C37.785 4.928 35.828 4.187 33.814 4.187C31.021 4.187 28.836 5.612 28.836 8.158C28.836 10.932 31.363 11.749 33.776 12.224C35.429 12.585 36.816 12.87 36.816 14.181C36.816 15.359 35.771 16.1 34.118 16.1C32.75 16.1 31.23 15.53 30.413 14.105L28.456 15.435C29.501 17.183 31.515 18.247 34.023 18.247C37.348 18.247 39.305 16.385 39.305 13.934C39.305 10.59 35.543 10.134 33.301 9.545C32.18 9.241 31.363 8.842 31.363 7.987C31.363 6.904 32.446 6.334 33.757 6.334ZM50.1897 21.306V7.968H47.7767V9.26C47.0547 8.234 45.9337 7.74 44.6797 7.74C41.9437 7.74 40.1767 10.02 40.1767 13.003C40.1767 15.986 41.9437 18.228 44.6797 18.228C45.9147 18.228 47.0547 17.753 47.7767 16.708V21.306H50.1897ZM47.7767 12.984C47.7767 14.713 46.9027 16.119 45.1927 16.119C43.5017 16.119 42.7037 14.713 42.7037 12.984C42.7037 11.274 43.5207 9.849 45.1927 9.849C46.8837 9.849 47.7767 11.255 47.7767 12.984ZM58.5487 7.968V13.63C58.5487 15.15 57.5607 16.062 56.2497 16.062C54.8627 16.062 54.5207 15.074 54.5207 14.01V7.968H52.1077V14.58C52.1077 16.727 53.3617 18.228 55.4707 18.228C56.8007 18.228 57.9027 17.639 58.5487 16.746V18H60.9427V7.968H58.5487ZM70.972 18V11.046C70.972 8.709 69.319 7.74 66.963 7.74C65.386 7.74 63.828 8.234 62.764 8.937L63.638 10.704C64.55 10.077 65.804 9.754 66.773 9.754C67.59 9.754 68.559 9.982 68.559 10.818C68.559 11.768 67.324 11.863 65.88 12.072C64.531 12.262 62.346 12.68 62.346 15.131C62.346 17.107 63.771 18.228 65.823 18.228C67.21 18.228 68.084 17.734 68.692 16.936C68.692 17.354 68.692 18 68.692 18H70.972ZM68.559 14.181C68.559 15.682 67.476 16.328 66.317 16.328C65.386 16.328 64.74 15.91 64.74 15.017C64.74 14.048 65.5 13.82 66.374 13.649C67.267 13.497 68.103 13.383 68.559 13.041V14.181ZM79.3865 8.12C79.1585 7.949 78.6265 7.778 78.0755 7.778C76.9545 7.778 75.9285 8.386 75.3395 9.298V7.968H72.9265V18H75.3395V13.307C75.3395 11.084 76.4225 10.02 77.7905 10.02C78.2085 10.02 78.7025 10.115 78.9685 10.286L79.3865 8.12ZM81.9991 11.863C82.1131 10.514 83.0251 9.602 84.3931 9.602C85.6281 9.602 86.6161 10.343 86.7301 11.863H81.9991ZM79.3961 13.022C79.3961 16.005 81.2391 18.228 84.5071 18.228C86.2931 18.228 87.7371 17.563 88.7821 16.309L87.2431 14.846C86.5971 15.663 85.7041 16.081 84.6401 16.081C83.1391 16.081 81.9991 15.207 81.9801 13.554H89.0671C89.0861 13.326 89.1241 13.022 89.1241 12.661C89.1241 9.811 87.3381 7.74 84.3551 7.74C81.2201 7.74 79.3961 10.039 79.3961 13.022Z" fill="black"/>
</svg>
