<svg width="28" height="28" viewBox="0 0 28 28" fill="none" xmlns="http://www.w3.org/2000/svg">
<path fill-rule="evenodd" clip-rule="evenodd" d="M6.22222 4.25C5.70331 4.25 5.19317 4.42734 4.81025 4.81025C4.42734 5.19317 4.25 5.70331 4.25 6.22222V21.7778C4.25 22.2967 4.42734 22.8068 4.81025 23.1897C5.19317 23.5727 5.70331 23.75 6.22222 23.75H21.7778C22.2967 23.75 22.8068 23.5727 23.1897 23.1897C23.5727 22.8068 23.75 22.2967 23.75 21.7778V6.22222C23.75 5.70331 23.5727 5.19317 23.1897 4.81025C22.8068 4.42734 22.2967 4.25 21.7778 4.25H6.22222ZM6.25 9.25V6.25H21.75V9.25H6.25ZM6.25 11.25H21.75V21.75H6.25V11.25ZM17.2071 15.9571C17.5976 15.5666 17.5976 14.9334 17.2071 14.5429C16.8166 14.1524 16.1834 14.1524 15.7929 14.5429L14 16.3358L13.4571 15.7929C13.0666 15.4024 12.4334 15.4024 12.0429 15.7929C11.6524 16.1834 11.6524 16.8166 12.0429 17.2071L13.2929 18.4571C13.6834 18.8476 14.3166 18.8476 14.7071 18.4571L17.2071 15.9571Z" fill="black" fill-opacity="0.9"/>
</svg>
