<svg width="28" height="28" viewBox="0 0 28 28" fill="none" xmlns="http://www.w3.org/2000/svg">
<mask id="path-1-inside-1" fill="white">
<path fill-rule="evenodd" clip-rule="evenodd" d="M7.75 10.25C8.44036 10.25 9 9.69036 9 9C9 8.30964 8.44036 7.75 7.75 7.75C7.05964 7.75 6.5 8.30964 6.5 9C6.5 9.69036 7.05964 10.25 7.75 10.25ZM11.5 8.16667C11.0398 8.16667 10.6667 8.53976 10.6667 9C10.6667 9.46024 11.0398 9.83333 11.5 9.83333H20.6667C21.1269 9.83333 21.5 9.46024 21.5 9C21.5 8.53976 21.1269 8.16667 20.6667 8.16667H11.5ZM11.5 13.1667C11.0398 13.1667 10.6667 13.5398 10.6667 14C10.6667 14.4602 11.0398 14.8333 11.5 14.8333H20.6667C21.1269 14.8333 21.5 14.4602 21.5 14C21.5 13.5398 21.1269 13.1667 20.6667 13.1667H11.5ZM10.6667 19C10.6667 18.5398 11.0398 18.1667 11.5 18.1667H20.6667C21.1269 18.1667 21.5 18.5398 21.5 19C21.5 19.4602 21.1269 19.8333 20.6667 19.8333H11.5C11.0398 19.8333 10.6667 19.4602 10.6667 19ZM9 14C9 14.6904 8.44036 15.25 7.75 15.25C7.05964 15.25 6.5 14.6904 6.5 14C6.5 13.3096 7.05964 12.75 7.75 12.75C8.44036 12.75 9 13.3096 9 14ZM7.75 20.25C8.44036 20.25 9 19.6904 9 19C9 18.3096 8.44036 17.75 7.75 17.75C7.05964 17.75 6.5 18.3096 6.5 19C6.5 19.6904 7.05964 20.25 7.75 20.25Z"/>
</mask>
<path fill-rule="evenodd" clip-rule="evenodd" d="M7.75 10.25C8.44036 10.25 9 9.69036 9 9C9 8.30964 8.44036 7.75 7.75 7.75C7.05964 7.75 6.5 8.30964 6.5 9C6.5 9.69036 7.05964 10.25 7.75 10.25ZM11.5 8.16667C11.0398 8.16667 10.6667 8.53976 10.6667 9C10.6667 9.46024 11.0398 9.83333 11.5 9.83333H20.6667C21.1269 9.83333 21.5 9.46024 21.5 9C21.5 8.53976 21.1269 8.16667 20.6667 8.16667H11.5ZM11.5 13.1667C11.0398 13.1667 10.6667 13.5398 10.6667 14C10.6667 14.4602 11.0398 14.8333 11.5 14.8333H20.6667C21.1269 14.8333 21.5 14.4602 21.5 14C21.5 13.5398 21.1269 13.1667 20.6667 13.1667H11.5ZM10.6667 19C10.6667 18.5398 11.0398 18.1667 11.5 18.1667H20.6667C21.1269 18.1667 21.5 18.5398 21.5 19C21.5 19.4602 21.1269 19.8333 20.6667 19.8333H11.5C11.0398 19.8333 10.6667 19.4602 10.6667 19ZM9 14C9 14.6904 8.44036 15.25 7.75 15.25C7.05964 15.25 6.5 14.6904 6.5 14C6.5 13.3096 7.05964 12.75 7.75 12.75C8.44036 12.75 9 13.3096 9 14ZM7.75 20.25C8.44036 20.25 9 19.6904 9 19C9 18.3096 8.44036 17.75 7.75 17.75C7.05964 17.75 6.5 18.3096 6.5 19C6.5 19.6904 7.05964 20.25 7.75 20.25Z" fill="black" fill-opacity="0.9"/>
<path d="M7.95833 9C7.95833 9.11506 7.86506 9.20833 7.75 9.20833V11.2917C9.01565 11.2917 10.0417 10.2657 10.0417 9H7.95833ZM7.75 8.79167C7.86506 8.79167 7.95833 8.88494 7.95833 9H10.0417C10.0417 7.73435 9.01565 6.70833 7.75 6.70833V8.79167ZM7.54167 9C7.54167 8.88494 7.63494 8.79167 7.75 8.79167V6.70833C6.48435 6.70833 5.45833 7.73435 5.45833 9H7.54167ZM7.75 9.20833C7.63494 9.20833 7.54167 9.11506 7.54167 9H5.45833C5.45833 10.2657 6.48435 11.2917 7.75 11.2917V9.20833ZM11.7083 9C11.7083 9.11506 11.6151 9.20833 11.5 9.20833V7.125C10.4645 7.125 9.625 7.96447 9.625 9H11.7083ZM11.5 8.79167C11.6151 8.79167 11.7083 8.88494 11.7083 9H9.625C9.625 10.0355 10.4645 10.875 11.5 10.875V8.79167ZM20.6667 8.79167H11.5V10.875H20.6667V8.79167ZM20.4583 9C20.4583 8.88494 20.5516 8.79167 20.6667 8.79167V10.875C21.7022 10.875 22.5417 10.0355 22.5417 9H20.4583ZM20.6667 9.20833C20.5516 9.20833 20.4583 9.11506 20.4583 9H22.5417C22.5417 7.96447 21.7022 7.125 20.6667 7.125V9.20833ZM11.5 9.20833H20.6667V7.125H11.5V9.20833ZM11.7083 14C11.7083 14.1151 11.6151 14.2083 11.5 14.2083V12.125C10.4645 12.125 9.625 12.9645 9.625 14H11.7083ZM11.5 13.7917C11.6151 13.7917 11.7083 13.8849 11.7083 14H9.625C9.625 15.0355 10.4645 15.875 11.5 15.875V13.7917ZM20.6667 13.7917H11.5V15.875H20.6667V13.7917ZM20.4583 14C20.4583 13.8849 20.5516 13.7917 20.6667 13.7917V15.875C21.7022 15.875 22.5417 15.0355 22.5417 14H20.4583ZM20.6667 14.2083C20.5516 14.2083 20.4583 14.1151 20.4583 14H22.5417C22.5417 12.9645 21.7022 12.125 20.6667 12.125V14.2083ZM11.5 14.2083H20.6667V12.125H11.5V14.2083ZM11.5 17.125C10.4645 17.125 9.625 17.9645 9.625 19H11.7083C11.7083 19.1151 11.6151 19.2083 11.5 19.2083V17.125ZM20.6667 17.125H11.5V19.2083H20.6667V17.125ZM22.5417 19C22.5417 17.9645 21.7022 17.125 20.6667 17.125V19.2083C20.5516 19.2083 20.4583 19.1151 20.4583 19H22.5417ZM20.6667 20.875C21.7022 20.875 22.5417 20.0355 22.5417 19H20.4583C20.4583 18.8849 20.5516 18.7917 20.6667 18.7917V20.875ZM11.5 20.875H20.6667V18.7917H11.5V20.875ZM9.625 19C9.625 20.0355 10.4645 20.875 11.5 20.875V18.7917C11.6151 18.7917 11.7083 18.8849 11.7083 19H9.625ZM7.75 16.2917C9.01565 16.2917 10.0417 15.2657 10.0417 14H7.95833C7.95833 14.1151 7.86506 14.2083 7.75 14.2083V16.2917ZM5.45833 14C5.45833 15.2657 6.48435 16.2917 7.75 16.2917V14.2083C7.63494 14.2083 7.54167 14.1151 7.54167 14H5.45833ZM7.75 11.7083C6.48435 11.7083 5.45833 12.7343 5.45833 14H7.54167C7.54167 13.8849 7.63494 13.7917 7.75 13.7917V11.7083ZM10.0417 14C10.0417 12.7343 9.01565 11.7083 7.75 11.7083V13.7917C7.86506 13.7917 7.95833 13.8849 7.95833 14H10.0417ZM7.95833 19C7.95833 19.1151 7.86506 19.2083 7.75 19.2083V21.2917C9.01565 21.2917 10.0417 20.2657 10.0417 19H7.95833ZM7.75 18.7917C7.86506 18.7917 7.95833 18.8849 7.95833 19H10.0417C10.0417 17.7343 9.01565 16.7083 7.75 16.7083V18.7917ZM7.54167 19C7.54167 18.8849 7.63494 18.7917 7.75 18.7917V16.7083C6.48435 16.7083 5.45833 17.7343 5.45833 19H7.54167ZM7.75 19.2083C7.63494 19.2083 7.54167 19.1151 7.54167 19H5.45833C5.45833 20.2657 6.48435 21.2917 7.75 21.2917V19.2083Z" fill="black" fill-opacity="0.9" mask="url(#path-1-inside-1)"/>
</svg>
